<?xml version="1.0" standalone="no"?><!DOCTYPE svg PUBLIC "-//W3C//DTD SVG 1.1//EN" "http://www.w3.org/Graphics/SVG/1.1/DTD/svg11.dtd"><svg t="1761012417322" class="icon" viewBox="0 0 1024 1024" version="1.1" xmlns="http://www.w3.org/2000/svg" p-id="10416" xmlns:xlink="http://www.w3.org/1999/xlink" width="200" height="200"><path d="M0 0v1024h839.68V839.68h184.32V0H0z" fill="#FC904A" p-id="10417"></path><path d="M839.68 1024V839.68h184.32L839.68 1024z" fill="#F27638" p-id="10418"></path><path d="M526.8352 245.1072l-68.0832 0.1152 0.2688 157.0176c0 13.1072-18.3168 39.808-47.0272 51.8272L389.76 463.36l13.696 237.12a18.7136 18.7136 0 0 1-5.376 13.1328 19.8144 19.8144 0 0 1-14.2848 6.0288 20.48 20.48 0 0 1-20.48-20.48l14.9376-236.0448-23.4112-8.96c-29.2864-11.1744-48.7168-38.5152-48.7168-51.6864l-0.5376-157.184-68.0832 0.2304 0.576 157.0816c0 23.04 10.24 47.8464 28.864 69.7984a161.1904 161.1904 0 0 0 40.384 34.0992l-12.0704 190.5408v2.1504a88.6528 88.6528 0 0 0 88.5504 88.5504 87.3216 87.3216 0 0 0 63.0784-26.6368 86.0672 86.0672 0 0 0 24.6528-62.8352v-0.5248l-11.1104-192.3456a161.1648 161.1648 0 0 0 39.2704-34.4704c17.7024-21.6704 27.4432-46.08 27.4432-68.7488z" fill="#FFEFE3" p-id="10419"></path><path d="M348.2624 243.392h68.096v158.8864h-68.096z" fill="#FFEFE3" p-id="10420"></path><path d="M786.4832 236.2624a204.8 204.8 0 0 0-204.8 204.8v212.48h128v134.1952h76.8V236.2624z m-76.8 340.48h-51.2v-135.68a127.8848 127.8848 0 0 1 51.2-102.336v238.08z" fill="#FFFFFF" p-id="10421"></path></svg>