<?xml version="1.0" standalone="no"?><!DOCTYPE svg PUBLIC "-//W3C//DTD SVG 1.1//EN" "http://www.w3.org/Graphics/SVG/1.1/DTD/svg11.dtd"><svg t="1761012919023" class="icon" viewBox="0 0 1024 1024" version="1.1" xmlns="http://www.w3.org/2000/svg" p-id="13045" xmlns:xlink="http://www.w3.org/1999/xlink" width="200" height="200"><path d="M313.7 617.8L710.1 508l-7.8 109.9-381.4 109.8z" fill="#66E3AA" p-id="13046"></path><path d="M644.7 905.1H379.1c-17.1 0-33.4-6.4-45.8-18-12.5-11.6-20-27.4-21.2-44.5l-31.4-447.9h462.5l-31.4 447.9c-2.5 35-32 62.5-67.1 62.5zM332.1 442.7l27.8 396.5c0.7 10 9.1 17.9 19.2 17.9h265.6c10 0 18.4-7.9 19.2-17.9l27.8-396.5H332.1z" fill="#0071BC" p-id="13047"></path><path d="M809.8 442.7H214.1l12.1-145.4h571.5l12.1 145.4z m-543.5-48h491.3l-4.1-49.4H270.4l-4.1 49.4z" fill="#0071BC" p-id="13048"></path><path d="M755 345.3H268.8l13.3-122.2h459.4L755 345.3z m-432.6-48h379.1l-2.9-26.2H325.2l-2.8 26.2z" fill="#0071BC" p-id="13049"></path><path d="M647.2 266.2l-47.2-8.7c2.1-11.6 12.9-69.8 16.7-83.1 6.6-23.8 21-35.7 31.9-41.5 19.9-10.5 45.7-10.5 76.7 0 27.5 9.3 62.5 21.5 62.9 21.7l-15.8 45.3c-0.3-0.1-35.2-12.3-62.5-21.5-23.6-8-34.4-5.3-38.8-3-2.4 1.3-5.9 3.9-8.1 11.9v0.2c-2.5 8.3-11 52.7-15.8 78.7z" fill="#0071BC" p-id="13050"></path></svg>