<?xml version="1.0" standalone="no"?><!DOCTYPE svg PUBLIC "-//W3C//DTD SVG 1.1//EN" "http://www.w3.org/Graphics/SVG/1.1/DTD/svg11.dtd"><svg t="1761013002530" class="icon" viewBox="0 0 1024 1024" version="1.1" xmlns="http://www.w3.org/2000/svg" p-id="15220" xmlns:xlink="http://www.w3.org/1999/xlink" width="200" height="200"><path d="M0.6144 0.6144m409.6 0l203.52 0q409.6 0 409.6 409.6l0 203.52q0 409.6-409.6 409.6l-203.52 0q-409.6 0-409.6-409.6l0-203.52q0-409.6 409.6-409.6Z" fill="#FE5C4D" p-id="15221"></path><path d="M880.64 154.7264a32.2048 32.2048 0 0 0-5.888-0.4096 30.72 30.72 0 0 1 4.6592 11.8272 23.3472 23.3472 0 0 0-1.024-4.1472 32.9728 32.9728 0 0 0-3.6352-7.68l-82.7392 2.9184a34.9696 34.9696 0 0 0-32.9728 27.5456l-22.272 99.584a63.1296 63.1296 0 0 0-7.68-0.4608h-15.36l-1.8432-4.7104v-0.4096l-1.6896-4.1984-39.9872-96.2048a37.888 37.888 0 0 0-47.7184-21.3504l-1.792 0.6656-8.2944 3.3792-99.6864 40.96-3.4304 1.4336-3.4304 1.4336-27.5968-63.5392a37.9392 37.9392 0 0 0-49.8688-19.8656l-190.3104 81.92c-0.7168 0.3072-1.3312 0.6656-1.9968 1.024a37.8368 37.8368 0 0 0-17.8176 48.8448l13.1072 30.72H225.28a65.1264 65.1264 0 0 0-63.8464 78.0288l58.2656 286.72a65.024 65.024 0 0 0 24.7808 39.0656 69.8368 69.8368 0 0 0 7.7824 5.12 65.024 65.024 0 0 0 31.2832 8.0384h392.5504a65.1776 65.1776 0 0 0 64.1024-53.2992l52.1216-282.0608 30.1568-137.984a9.216 9.216 0 0 1 8.7552-7.4752l45.0048-1.0752a32.4608 32.4608 0 0 0 31.8464-33.536 32.4096 32.4096 0 0 0-27.4432-30.8224z" fill="#E72F26" p-id="15222"></path><path d="M626.8928 174.8992c-0.6656-1.0752-1.3824-2.048-2.0992-3.0208a36.5568 36.5568 0 0 1 4.7616 8.1408 40.2432 40.2432 0 0 0-2.6624-5.12zM429.6192 141.0048a3.072 3.072 0 0 1 0.4096 0.4096 3.072 3.072 0 0 0-0.4096-0.4096zM432.896 144.384l0.9728 1.2288zM435.9168 148.48c0 0.4096 0.5632 0.8192 0.8192 1.28-0.256-0.512-0.5632-0.9216-0.8192-1.28zM424.96 137.3696a35.5328 35.5328 0 0 1 4.7616 3.6352 35.5328 35.5328 0 0 0-4.7616-3.6352zM406.1184 131.2768a37.8368 37.8368 0 0 1 5.888 0.768 37.8368 37.8368 0 0 0-5.888-0.768zM413.7472 132.5568a27.648 27.648 0 0 1 3.9936 1.2288 25.6 25.6 0 0 0-3.9936-1.2288zM419.84 134.5536a32.3072 32.3072 0 0 1 3.7376 1.9456 32.3072 32.3072 0 0 0-3.7376-1.9456zM623.4112 170.1376a30.72 30.72 0 0 0-2.1504-2.3552 30.72 30.72 0 0 1 2.1504 2.3552zM618.9568 165.6832l-1.8432-1.536zM444.3648 133.12a43.2128 43.2128 0 0 0-6.5024-3.328 43.2128 43.2128 0 0 1 6.5024 3.328zM362.5472 715.3664a46.7456 46.7456 0 0 0-73.1648 38.5024 46.08 46.08 0 0 0 1.2288 9.984 45.312 45.312 0 0 0 7.0144 16.4352 46.6944 46.6944 0 1 0 64.9216-64.9216z" fill="#E72F26" p-id="15223"></path><path d="M364.8 719.2576c0.8704 1.536 1.5872 3.1232 2.304 4.7104-0.7168-1.5872-1.4336-3.1744-2.304-4.7104zM367.5136 725.0944a37.632 37.632 0 0 1 1.4336 4.2496 41.4208 41.4208 0 0 0-1.4336-4.2496zM369.6128 732.16c0 1.0752 0.512 2.1504 0.6656 3.2768-0.2048-1.28-0.4608-2.3552-0.6656-3.2768zM640 715.3664a46.7456 46.7456 0 0 0-73.1648 38.5024 46.08 46.08 0 0 0 1.2288 9.984c0 0.4096 0.4608 0.768 0.7168 1.1776a28.3648 28.3648 0 0 0 1.536 2.7136c-0.8192-1.28-1.536-2.6112-2.2528-3.8912a45.312 45.312 0 0 0 7.0144 16.4352A46.6944 46.6944 0 1 0 640 715.3664z" fill="#E72F26" p-id="15224"></path><path d="M642.304 719.2576c0.8704 1.536 1.5872 3.1232 2.304 4.7104-0.7168-1.5872-1.4336-3.1744-2.304-4.7104zM645.12 725.0944a37.632 37.632 0 0 1 1.4336 4.2496 41.4208 41.4208 0 0 0-1.4336-4.2496zM647.1168 732.16c0 1.0752 0.512 2.1504 0.6656 3.2768-0.2048-1.28-0.4608-2.3552-0.6656-3.2768z" fill="#E72F26" p-id="15225"></path><path d="M801.8944 823.3472a25.6 25.6 0 0 1-35.84-5.12C679.6288 704.7168 585.984 757.76 481.28 833.3824c-32.3072 23.3472-61.8496 31.8976-87.04 31.8976a106.0864 106.0864 0 0 1-81.408-37.0176 24.9344 24.9344 0 0 1-3.8912-7.0144 25.6 25.6 0 0 0 3.8912 25.088 106.0864 106.0864 0 0 0 81.408 36.9664c25.2928 0 54.8352-8.448 87.04-31.7952 104.6528-75.4688 198.2976-128.7168 284.672-15.0016a25.6 25.6 0 0 0 44.2368-24.4736 25.6 25.6 0 0 1-8.2944 11.3152z" fill="#FFB3B0" p-id="15226"></path><path d="M394.24 865.28c25.2928 0 54.8352-8.4992 87.04-31.8464 104.6528-75.4688 198.2976-128.6656 284.672-14.9504a25.6 25.6 0 0 0 44.2368-6.4 26.6752 26.6752 0 0 0-3.4816-6.5024c-123.648-162.7136-274.3808-53.9648-355.328 4.4032-60.3136 43.52-92.9792 11.1104-99.0208 4.0448a25.6 25.6 0 0 0-35.84-3.6864 25.6 25.6 0 0 0-7.7824 10.9056 24.9344 24.9344 0 0 0 3.8912 7.0144A106.0864 106.0864 0 0 0 394.24 865.28z" fill="#FFFFFF" p-id="15227"></path><path d="M724.0704 407.1936l-82.4832-200.9088a35.84 35.84 0 0 0-45.2096-20.224 35.84 35.84 0 0 1 27.2384 21.76l82.4832 200.9088a35.84 35.84 0 0 1-19.6096 46.9504l-181.7088 74.5984c-0.5632 0.256-1.1264 0.4096-1.6896 0.6144a35.84 35.84 0 0 0 19.6608-2.1504l181.7088-74.5984a35.84 35.84 0 0 0 19.6096-46.9504z" fill="#FFB3B0" p-id="15228"></path><path d="M706.0992 408.7296L623.616 207.8208a35.84 35.84 0 0 0-27.2384-21.76c-0.5632 0-1.1264 0.3584-1.6896 0.6144l-7.8848 3.2256a35.84 35.84 0 0 1 16.2304 17.92l82.4832 200.9088a35.84 35.84 0 0 1-19.6096 46.9504l-173.824 71.3728a35.84 35.84 0 0 0 11.008 3.84c0.5632 0 1.1264-0.3584 1.6896-0.6144L686.4896 455.68a35.84 35.84 0 0 0 19.6096-46.9504z" fill="#FFCBC9" p-id="15229"></path><path d="M408.1152 320.8704a35.84 35.84 0 0 1 19.6096-46.8992l172.8-70.9632a35.84 35.84 0 0 0-13.7216-13.1072L412.9792 261.12a35.84 35.84 0 0 0-19.6096 46.9504l82.432 200.9088a35.84 35.84 0 0 0 16.2816 17.92l1.024-0.4096a31.1296 31.1296 0 0 1-2.5088-5.12z" fill="#FFFFFF" p-id="15230"></path><path d="M685.5168 408.7296l-82.4832-200.9088a33.024 33.024 0 0 0-2.5088-4.8128L427.7248 273.9712a35.84 35.84 0 0 0-19.6096 46.8992l82.4832 200.9088a31.1296 31.1296 0 0 0 2.5088 5.12L665.9072 455.68a35.84 35.84 0 0 0 19.6096-46.9504z" fill="#FDF5F3" p-id="15231"></path><path d="M545.6896 370.6368l-86.016-199.424a35.84 35.84 0 0 0-47.2576-18.7904L232.0384 230.4c-0.6656 0-1.28 0.6144-1.8944 0.9216l163.84-70.6048A35.84 35.84 0 0 1 441.1392 179.2L527.36 378.88a35.84 35.84 0 0 1-16.896 46.08l16.64-7.168a35.84 35.84 0 0 0 18.5856-47.1552z" fill="#FFB3B0" p-id="15232"></path><path d="M527.36 378.88L441.1392 179.2a35.84 35.84 0 0 0-47.2576-18.7904l-2.6112 1.1264a35.84 35.84 0 0 1 31.1808 21.6576l86.016 199.68a35.84 35.84 0 0 1-16.896 46.08L330.4448 498.5344a36.3008 36.3008 0 0 0 16.0768-2.8672L510.2592 424.96a35.84 35.84 0 0 0 17.1008-46.08z" fill="#FFCBC9" p-id="15233"></path><path d="M319.6416 485.888L233.6256 286.72a35.84 35.84 0 0 1 16.896-46.336l161.1776-69.7856h1.8432a35.84 35.84 0 0 0-22.272-9.216L230.4 231.1168a35.84 35.84 0 0 0-16.896 46.08l86.016 199.68a35.84 35.84 0 0 0 29.2864 21.4016 35.2768 35.2768 0 0 1-9.1648-12.3904z" fill="#FFFFFF" p-id="15234"></path><path d="M491.52 429.056a35.84 35.84 0 0 0 16.896-46.08l-85.9648-199.68a35.0208 35.0208 0 0 0-8.9088-12.4416h-1.8432L250.5216 240.128a35.84 35.84 0 0 0-16.896 46.592l86.016 199.68a35.2768 35.2768 0 0 0 8.9088 12.3904l1.8944 0.256z" fill="#FDF5F3" p-id="15235"></path><path d="M840.7552 183.8592a30.4128 30.4128 0 0 1 12.5952 23.6032 30.72 30.72 0 0 1-30.1568 31.8464l-42.6496 0.9728a8.704 8.704 0 0 0-8.2944 6.8096l-28.6208 130.816-52.0192-11.4176-0.5632 2.6112 66.2528 14.4896 28.6208-130.7648a8.704 8.704 0 0 1 8.2944-7.0656l42.6496-0.9728a30.72 30.72 0 0 0 30.1568-31.8464 30.72 30.72 0 0 0-26.2656-29.0816z" fill="#FFB3B0" p-id="15236"></path><path d="M840.7552 183.8592a32.7168 32.7168 0 0 0-5.5296-0.3584 30.1056 30.1056 0 0 1 4.864 15.36 30.72 30.72 0 0 1-30.1568 31.8464l-42.6496 0.9728a8.6528 8.6528 0 0 0-8.2944 6.8096l-28.6208 130.816-37.376-8.192-1.1776 5.4272 52.0192 11.4176 28.6208-130.816a8.704 8.704 0 0 1 8.2944-6.8096l42.6496-0.9728a30.72 30.72 0 0 0 30.1568-31.8464 30.4128 30.4128 0 0 0-12.8-23.6544z" fill="#FFCBC9" p-id="15237"></path><path d="M732.7232 219.4944a33.1776 33.1776 0 0 1 31.232-26.112l74.5472-2.6112a31.6416 31.6416 0 0 0-3.4816-7.2704l-78.4384 2.7648a33.1264 33.1264 0 0 0-31.232 26.0608l-32.512 148.736 8.5504 1.8944 31.3344-143.36z" fill="#FFFFFF" p-id="15238"></path><path d="M758.784 238.4384a8.6528 8.6528 0 0 1 8.2944-6.8096l42.6496-0.9728a30.72 30.72 0 0 0 29.952-31.8464 31.8464 31.8464 0 0 0-1.3824-8.0384l-74.5472 2.6112a33.1776 33.1776 0 0 0-31.232 26.112l-31.3344 143.36 28.8256 6.2976z" fill="#FDF5F3" p-id="15239"></path><path d="M697.3952 306.2784h-17.4592a61.7472 61.7472 0 0 1 31.1296 65.3824l-50.176 271.6672a61.7984 61.7984 0 0 1-60.7232 50.5344H245.76a61.8496 61.8496 0 0 0 29.3376 7.5776h372.0704a61.7984 61.7984 0 0 0 60.7744-50.5344l50.176-271.6672a61.7472 61.7472 0 0 0-60.7232-72.96z" fill="#FFB3B0" p-id="15240"></path><path d="M679.936 306.2784h-24.0128a61.44 61.44 0 0 1 23.7056 60.5184l-50.2272 271.6672a61.696 61.696 0 0 1-60.7232 50.5344H238.1312a59.1872 59.1872 0 0 0 7.3728 5.12h354.6624a61.7984 61.7984 0 0 0 60.7232-50.5344l50.176-271.6672a61.7472 61.7472 0 0 0-31.1296-65.6384z" fill="#FFCBC9" p-id="15241"></path><path d="M178.0736 402.1248A61.7472 61.7472 0 0 1 238.592 328.0896h435.2a62.0544 62.0544 0 0 0-18.0224-21.8112H220.16a61.7472 61.7472 0 0 0-60.7744 74.0352l55.1936 271.6672a61.44 61.44 0 0 0 23.552 37.0176h0.4608a60.8768 60.8768 0 0 1-5.12-15.36z" fill="#FFFFFF" p-id="15242"></path><path d="M629.4016 638.464l50.2272-271.6672a60.5184 60.5184 0 0 0-5.6832-38.7072h-435.2a61.7472 61.7472 0 0 0-60.672 74.0352l55.1936 271.6672a60.8768 60.8768 0 0 0 5.12 15.36h330.0864a61.696 61.696 0 0 0 60.928-50.688z" fill="#FDF5F3" p-id="15243"></path><path d="M350.0032 715.264a44.2368 44.2368 0 0 1-61.44 61.44 44.2368 44.2368 0 1 0 61.44-61.44z" fill="#FFB3B0" p-id="15244"></path><path d="M352.1536 718.9504a43.52 43.52 0 0 1 1.1264 9.4208 44.1856 44.1856 0 0 1-69.3248 36.4544 36.608 36.608 0 0 1-2.1504-3.6864 43.8272 43.8272 0 0 0 6.656 15.616 44.1344 44.1344 0 0 0 63.6928-57.8048z" fill="#FFCBC9" p-id="15245"></path><path d="M331.8784 712.0384a48.8448 48.8448 0 0 1 18.3808 3.6864v-0.4608a44.1856 44.1856 0 0 0-69.3248 36.4544 43.52 43.52 0 0 0 1.1264 9.4208l0.6656 1.1776v-0.8704a49.408 49.408 0 0 1 49.152-49.408z" fill="#FFFFFF" p-id="15246"></path><path d="M309.0432 772.6592a44.2368 44.2368 0 0 0 44.2368-44.288 43.52 43.52 0 0 0-1.1264-9.4208c-0.6144-1.1264-1.2288-2.2016-1.8944-3.2256a48.8448 48.8448 0 0 0-18.3808-3.6864 49.408 49.408 0 0 0-49.4592 49.408v0.8704c0 0.3072 0.9216 1.7408 1.4848 2.5088a44.032 44.032 0 0 0 25.1392 7.8336z" fill="#FDF5F3" p-id="15247"></path><path d="M613.0176 715.264a44.2368 44.2368 0 0 1-61.44 61.44 44.2368 44.2368 0 1 0 61.44-61.44z" fill="#FFB3B0" p-id="15248"></path><path d="M615.168 718.9504a43.52 43.52 0 0 1 1.1264 9.4208 44.1856 44.1856 0 0 1-69.3248 36.4544 28.928 28.928 0 0 1-2.1504-3.6864 43.8272 43.8272 0 0 0 6.656 15.616 44.1344 44.1344 0 0 0 63.6928-57.8048z" fill="#FFCBC9" p-id="15249"></path><path d="M594.8416 712.0384a48.896 48.896 0 0 1 18.432 3.6864v-0.4608a44.1856 44.1856 0 0 0-69.3248 36.4544 43.52 43.52 0 0 0 1.1264 9.4208l0.6656 1.1776v-0.8704a49.408 49.408 0 0 1 49.1008-49.408z" fill="#FFFFFF" p-id="15250"></path><path d="M572.0576 772.6592a44.2368 44.2368 0 0 0 44.2368-44.288 43.52 43.52 0 0 0-1.1264-9.4208c-0.6144-1.1264-1.2288-2.2016-1.8944-3.2256a48.896 48.896 0 0 0-18.432-3.6864 49.408 49.408 0 0 0-49.408 49.408v0.8704a20.48 20.48 0 0 0 1.4848 2.5088 44.032 44.032 0 0 0 25.1392 7.8336z" fill="#FDF5F3" p-id="15251"></path><path d="M224.5632 301.8752h456.3456l1.7408 4.4032H226.3552l-1.792-4.4032z" fill="#FFB3B0" p-id="15252"></path><path d="M222.72 297.472h456.3456l1.792 4.4032H224.5632l-1.8432-4.4032z" fill="#FFCBC9" p-id="15253"></path><path d="M485.7344 231.3728l28.416 66.0992h4.4544l-29.5936-67.4304-3.2768 1.3312z" fill="#FFB3B0" p-id="15254"></path><path d="M489.0112 230.0416l29.5424 67.4304h4.4544l-30.72-68.8128-3.2768 1.3824z" fill="#FFCBC9" p-id="15255"></path></svg>