<?xml version="1.0" standalone="no"?><!DOCTYPE svg PUBLIC "-//W3C//DTD SVG 1.1//EN" "http://www.w3.org/Graphics/SVG/1.1/DTD/svg11.dtd"><svg t="1761013602791" class="icon" viewBox="0 0 1024 1024" version="1.1" xmlns="http://www.w3.org/2000/svg" p-id="20419" xmlns:xlink="http://www.w3.org/1999/xlink" width="200" height="200"><path d="M512 512m-512 0a512 512 0 1 0 1024 0 512 512 0 1 0-1024 0Z" fill="#F0F0F0" p-id="20420"></path><path d="M678.837677 227.505548c49.804387 32.829935-48.355097 108.003097-108.003096 108.003097s-108.003097-48.355097-108.003097-108.003097c0-59.652129 149.623742-232.832 142.220387-173.646451-11.453935 91.664516-11.453935 117.446194 73.785806 173.646451z" fill="#85CC85" p-id="20421"></path><path d="M570.834581 360.282839c-73.211871 0-132.77729-59.56129-132.777291-132.777291 0-38.924387 39.779097-96.396387 63.492129-127.194838 29.287226-38.036645 70.061419-83.373419 97.994323-83.37342 8.844387 0 16.850581 3.550968 22.540387 9.996387 6.56929 7.440516 9.108645 17.536 7.547871 29.99742-10.607484 84.901161-12.519226 100.203355 62.843871 149.888 21.008516 13.848774 29.349161 36.129032 22.31329 59.590193-14.501161 48.350968-93.390452 93.873548-143.95458 93.873549z m5.483354-271.587097c-36.232258 37.805419-88.712258 110.711742-88.712258 138.809806 0 45.890065 37.338839 83.228903 83.228904 83.228904 25.397677 0 65.969548-20.352 86.808774-43.553033 8.823742-9.818839 10.178065-15.979355 10.062451-17.094193-0.103226 0.222968-0.805161-0.780387-2.498064-1.895226-82.56-54.433032-94.769548-89.273806-88.889807-159.496258z" fill="#666666" p-id="20422"></path><path d="M769.548387 187.437419c121.488516 65.713548 201.356387 181.698065 201.356387 332.940387 0 242.023226-204.473806 438.210065-456.691613 438.210065-252.230194 0.004129-456.699871-196.186839-456.699871-438.210065 0-150.837677 79.430194-266.595097 200.357162-332.403612 73.083871-39.774968 151.275355-31.281548 256.334451-1.271742 90.950194 25.988129 182.457806-38.69729 255.343484 0.734967z" fill="#FF7878" p-id="20423"></path><path d="M514.209032 983.362065c-128.417032 0.004129-249.195355-48.028903-340.087742-135.242323-91.173161-87.485935-141.386323-203.875097-141.386322-327.741936 0-151.312516 77.741419-280.402581 213.28929-354.163612 36.954839-20.112516 76.733935-29.890065 121.620645-29.890065 41.765161 0 89.063226 8.192 153.360516 26.557936 12.725677 3.633548 26.273032 5.404903 41.422452 5.404903h0.012387c24.580129 0 50.114065-4.744258 74.809807-9.335742 24.807226-4.612129 50.460903-9.381161 75.425032-9.381161 26.202839 0 48.660645 5.260387 68.661677 16.08258 136.216774 73.682581 214.342194 202.974968 214.342194 354.73342 0 255.281548-215.985548 462.976-481.469936 462.976zM367.644903 185.872516c-36.90529 0-68.025806 7.580903-97.936516 23.861678-120.860903 65.775484-187.425032 176.094968-187.425032 310.643612 0 110.241032 44.8 213.937548 126.141935 291.988646 81.62271 78.319484 190.220387 121.447226 305.783742 121.447225 238.162581 0 431.917419-185.467871 431.91742-413.435871 0-134.945032-66.894452-245.446194-188.366452-311.151483-12.75871-6.899613-27.086452-10.116129-45.089032-10.116129-20.39329 0-42.727226 4.149677-66.365936 8.547096-26.900645 5.000258-54.722065 10.173935-83.868903 10.173936h-0.016516c-19.815226 0-37.813677-2.39071-55.027613-7.312516-59.676903-17.044645-102.779871-24.646194-139.747097-24.646194z" fill="#666666" p-id="20424"></path><path d="M668.890839 390.746839a24.774194 24.774194 0 0 1-24.774194-24.774194c0-119.762581-96.251871-148.236387-100.347871-149.388387-13.122065-3.695484-20.859871-17.308903-17.238709-30.447484 3.617032-13.138581 17.123097-20.90529 30.261677-17.358451 47.343484 12.75871 136.869161 70.395871 136.869161 197.194322a24.770065 24.770065 0 0 1-24.770064 24.774194z" fill="#666666" p-id="20425"></path><path d="M506.202839 938.351484c-128.417032 0.004129-249.195355-48.028903-340.087742-135.242323C74.941935 715.627355 24.732903 599.234065 24.732903 475.371355h49.548387c0 110.241032 44.795871 213.933419 126.137807 291.984516 81.62271 78.319484 190.216258 121.447226 305.783742 121.447226 238.162581 0 431.921548-185.463742 431.921548-413.431742h49.548387c0 255.285677-215.985548 462.980129-481.469935 462.980129z" fill="#666666" opacity=".15" p-id="20426"></path><path d="M253.956129 394.32671a24.774194 24.774194 0 0 1-24.080516-30.695226c20.52129-83.489032 93.935484-94.583742 97.048774-95.013161a24.774194 24.774194 0 0 1 7.023484 49.048774c-2.258581 0.371613-43.697548 7.923613-55.956645 57.794064a24.774194 24.774194 0 0 1-24.035097 18.865549z" fill="#FFFFFF" opacity=".67" p-id="20427"></path></svg>