<?xml version="1.0" standalone="no"?><!DOCTYPE svg PUBLIC "-//W3C//DTD SVG 1.1//EN" "http://www.w3.org/Graphics/SVG/1.1/DTD/svg11.dtd"><svg t="1761013701303" class="icon" viewBox="0 0 1026 1024" version="1.1" xmlns="http://www.w3.org/2000/svg" p-id="22103" xmlns:xlink="http://www.w3.org/1999/xlink" width="200.390625" height="200"><path d="M1021.801986 512A506.917091 506.917091 0 1 1 514.884894 5.220284a506.917091 506.917091 0 0 1 506.917092 506.779716z" fill="#F4EDE9" p-id="22104"></path><path d="M966.988999 490.844111a480.815669 480.815669 0 1 1-480.815669-480.81567 480.815669 480.815669 0 0 1 480.815669 480.81567z" fill="#553328" p-id="22105"></path><path d="M887.310974 490.844111A401.27502 401.27502 0 1 1 486.035954 89.56909a401.27502 401.27502 0 0 1 401.27502 401.275021z" fill="#AE4F32" p-id="22106"></path><path d="M485.623826 285.879259c-35.58036 0-61.956533 30.360075-90.668098 48.493695-26.51355 16.347733-56.736249 18.270995-72.534478 46.158304-12.501207 21.980145-4.396029 62.780789-7.69305 87.371076-5.220284 40.25114-13.737591 65.253555 7.69305 101.65817 14.42447 25.002415 42.174403 29.810572 65.253555 45.608801 30.772203 21.155889 59.483767 49.043198 98.361149 49.043198 33.657097 0 59.621143-24.590287 87.920579-41.212771s57.972632-24.178159 75.8315-53.439228c13.737591-23.903408 10.028441-58.934263 12.501208-85.859941 3.297022-38.465254 7.555675-68.687953-12.501208-102.757177-18.270995-31.184331-51.928092-39.289509-82.425543-55.637242-28.024685-14.42447-51.103837-39.426885-81.738664-39.426885z" fill="#F6F7F5" p-id="22107"></path><path d="M585.908237 467.902334a99.32278 99.32278 0 1 1-99.32278-99.460155 99.32278 99.32278 0 0 1 99.32278 99.460155z" fill="#F1B35F" p-id="22108"></path><path d="M573.40703 451.966729a78.304266 78.304266 0 1 1-78.16689-78.16689 78.304266 78.304266 0 0 1 78.16689 78.16689z" fill="#F0C35D" p-id="22109"></path><path d="M534.529649 399.077006l7.418298 7.555674 5.082909 7.967803 3.297022 8.654682 0.961631 7.967803L549.503622 439.602898l-3.709149 6.456667-5.769788 4.808157-7.006171 2.472766h-8.105179l-8.929434-1.785886-8.792058-3.846526-8.654682-5.907164-7.280923-7.555675-5.220284-8.37993-3.159646-8.517306-0.961631-8.105178 1.236383-7.693051 3.709149-6.456668 5.907164-4.67078 7.280923-2.610143h8.105179l8.929434 1.785887 8.792057 3.846526z" fill="#FBE6BE" p-id="22110"></path><path d="M425.865307 346.462034a27.475181 27.475181 0 1 0 27.475181 27.475181 27.475181 27.475181 0 0 0-27.475181-27.475181z m0 46.98256a19.644754 19.644754 0 1 1 19.644755-19.644755A19.507379 19.507379 0 0 1 425.865307 393.444594zM506.230212 576.978803a27.475181 27.475181 0 1 0 27.475181 27.475181 27.475181 27.475181 0 0 0-27.475181-27.475181z m0 46.98256A19.644754 19.644754 0 1 1 525.874966 604.453984a19.78213 19.78213 0 0 1-19.644754 19.370003zM579.726321 539.337805a27.475181 27.475181 0 1 0 27.475182 27.475181 27.475181 27.475181 0 0 0-27.475182-27.475181z m0 47.532064a19.644754 19.644754 0 1 1 19.644755-19.644755 20.056882 20.056882 0 0 1-19.644755 19.644755z" fill="#88B265" p-id="22111"></path></svg>